/* XPM */
static char *_a73f45b4b3442e7bceee8ba846b4103JKf4P4qyjKWJkeY1[] = {
/* columns rows colors chars-per-pixel */
"32 32 6 1 ",
"  c #7F5A48",
". c #A5765E",
"X c #CA8F72",
"o c #E5A282",
"O c #FFB691",
"+ c #FFD3AF",
/* pixels */
"++O+OO+OOOO+OO+O++O+O+O+OOOOOOO.",
"OOoOO+OOOooooOOOooOO+O+Oooooooo ",
"+oOOOoOoooooOooooOoOOoOooXoXoX. ",
"OOoOoOoOoOooooooooOooOooXoXXXoX ",
"OoOoOooooooOOooOooooOoOooXoXoX. ",
"OOoOooOoooooooooOooooOooXXXXo.X.",
"+OooOooOoooOoOoOooooOooXoXoo.X. ",
"+OOoOoooooooOoOoOooooooooXXoX.X ",
"O+oooooooOOooOoOooOooXooXo.XXoX.",
"+OoOooOoooooOooooooooooXoXX.oXX ",
"+OoooOooOooOoOoOooXoOoXoXX.XXo. ",
"+OOooooooOooOooooXoooooXoX.XooX ",
"OOOOoooooXoooooooooXooooX.XXoX. ",
"O+OooOoOooooOoXoOoooXooooXXoX.X ",
"+OOoooOoOooXoXoXoooooXXooooXXX. ",
"O+oOoOooooooooXoXoooXoXoXoooXXX ",
"+OOooOooooXoOooXooXoXooooooXooX.",
"OOoOOoOoXoooOXooXooXXXooXXXoXoX ",
"O+OOOooooXXooooXoXoooXXXoXXXooo.",
"+OoooOoooooooOooXooooXXoXXXoXoo ",
"OOOoOooXoOooooooooooXXXooXXXXoX ",
"+OoOoooooooOooooXXXXXXoXoXXXooX.",
"OOOooooooooooooooXXXXooooXXXoX. ",
"OOooooOoooXXooXXXooXoXoXXoXoo.X ",
"OoOoooooooOoooXoooXoXooooooooX. ",
"OoooOoOoOOoooOooXXXoooOoooXooXX ",
"OOOooOoOoooOOooooOooXoooXXooXoX.",
"+OoOoooooXXoooOOooXoooXXXoXoooo ",
"OOoOOoooXooXoooooXoooX.X.Xooooo ",
"+oOooooXX.XooooXoooX.XX.XXXXoXX ",
"OoooXXX..X.XoXooXXX.X.XXX.X.XX. ",
".       . .   .  .              "
};
