/* XPM */
static char *result[] = {
/* columns rows colors chars-per-pixel */
"32 32 15 1 ",
"  c #3C3F33",
". c #484C3D",
"X c #545947",
"o c #6D725B",
"O c #71775F",
"+ c #797F66",
"@ c #805A46",
"# c #A6775E",
"$ c #858C70",
"% c #CB9073",
"& c #9DA584",
"* c #A9B28E",
"= c #E6A383",
"- c #FFB792",
"; c #FFD4B0",
/* pixels */
";;-;--;----;--;-;;-;-;-;-------#",
"--=--;---====-      ;-;-=======@",
";=---=-=====  o$$$$o =-==%=%=%#@",
"--=-=-=-=-  Xo$&&&&$o ==%=%%%=%@",
"-=-=-==== Xo$&*****&$X ==%=%=%#@",
"--=-==-= X$&&&&$$$&&&$X %%%%=#%#",
";-==-== X$&**&$$$$$$$OX =%==#%#@",
";--=-= X$&&&$$$$$$++Oo. =%%=%#%@",
"-;=== X$&*$O$$$$$+OoXX. %=#%%=%#",
";-=- X+&&$ .+$$$+OoX.. %=%%#=%%@",
";-== o$&$   O$$+OoX   %=%%#%%=#@",
";-- Xo+$   ++++oX. .    =%#%==%@",
"--- o+++. +$+oX.  XX. .. #%%=%#@",
"-; X+$$$+++oXX. .XooXXoo. %=%#%@",
";- X$&$$$$oX.  .XoOOXo$$X. %%%#@",
"-; .+&$$+oX  ..XoOOOo+&&$o. %%%@",
";- .O$$+oX  XXXooOOOO+$&&$X. =%#",
"-- .+$+oX .XoOooXooOOO+$&&$o. %@",
"-; .+$+o. .XoOOoXXooOOo+$&$O. =#",
";- .+$+X  .XoooX..XoOOO++++o. =@",
"-- .O$o.  .XoOX.  .XoOooooOo. %@",
";- .oo. == .oOX.  .XOo..oOoX  %#",
"-- .XX === .oOX.  .XoX  ooX.  #@",
"--= .. =   .oOX.  XX.   XX. =#%@",
"-=-=  =    .XoXX....    XX.. %#@",
"-===-=  ......ooX.. ..  XXoX. %@",
"---==-  ...  .oOX.  ..  .XOo. %#",
";-=-==  ..   .oo.   .... .Oo. =@",
"--=--=  ..   .oX.   .... .oo. =@",
";=-===    %== ..  =%    % .. %%@",
"-===%%    #%=%    %#    %#  %%#@",
"#@@@@@@@#@#@@@#@@#@@@@@@@@@@@@@@"
};
