/* XPM */
static char *result[] = {
/* columns rows colors chars-per-pixel */
"32 64 30 1 ",
"  c black",
". c #1A0000",
"X c #001A00",
"o c #1A001A",
"O c #2C0000",
"+ c #3E0000",
"@ c #3E1A00",
"# c #112C00",
"$ c #1A3E00",
"% c #3E2C00",
"& c #600000",
"* c #602C00",
"= c #2C6000",
"- c #604600",
"; c #810000",
": c #A10000",
"> c #813E00",
", c #C10000",
"< c #E10000",
"1 c red",
"2 c #816000",
"3 c #A17900",
"4 c #805A46",
"5 c #A6775E",
"6 c #3E8100",
"7 c #CB9073",
"8 c #E6A383",
"9 c #FFB792",
"0 c #FFD4B0",
"q c #FFC1C1",
/* pixels */
"00909909999099090090909099999995",
"99899099988889;;2;;;090988888884",
"08999898888;;;:32-::;:9887878754",
"99898989;,<,,,<32-<,,,,;78777874",
"9898988;,<111132-11111<,,7878754",
"998988;,1q1<<,32-,<<<1q<,;778575",
"09889;:1qq<<,;32-;:<<1q1,:;85754",
"0998;:,<q1<,;.32-.:,<q1<,:;;7574",
"9088;:,<q1<<:;;&;;,<<11<,:;;7875",
"0989;::,<<q<<,,,,,<111<,::;;;774",
"098;;::,<<<q11111111<<,,::;;;854",
"099;;;::,,<<<<<<<<<<<,,::;;&&874",
"999;;:::::,,,,<,<,,,,:::;;&&&+54",
"909;;:;::::,,,,,,,,::::;;;&&++74",
"099&;;;;::::::::::::::;;;&&+O.54",
"908&;;;;;;:;::::::::;;;;&&++O.74",
"099&;&;;;;;;;;:;:;;;;;;;&&++O.75",
"9989&;&;;;;;;;;;;;;;;;;;&&+OO.74",
"9099&;&;;;;;;;;;;;;;;;;;&&+O.885",
"0988&&;;;&;&;;;;;;>;;;;&&%+O.884",
"99989&&;;&;&;&>;;>>&>&&&%$%O.874",
"09898&;&>;&&&>>;;>2>&&&+%$O..875",
"999888&>>&&&;&2>;26--&$@%#O.8754",
"998888&&2&6&&&6&>-=-%+$@O#o.  74",
"9898888=6-=-*==-*-=-%%$#O#X    4",
"98889898=-$++$=-*%$$%%####X    4",
"99988989=$$$%$$$%$$$O####X    75",
"098988888.##O#######O###X    884",
"9989988878XXX#########XX   88884",
"0898888775  ##XXX#X#XX   7778774",
"988877755757          7775757754",
"54444444545444544544444444444444",
"00909909999099090090909099999995",
"99899099988889998899090988888884",
"08999898888898888989989887878754",
"99898989898888888898898878777874",
"98989888888998898888989887878754",
"99898898888888889888898877778575",
"09889889888989898888988787885754",
"09989888888898989888888887787574",
"90888888899889898898878878577875",
"09898898888898888888888787758774",
"09888988988989898878987877577854",
"09988888898898888788888787578874",
"99998888878888888887888875778754",
"90988989888898789888788887787574",
"09988898988787878888877888877754",
"90898988888888787888787878887774",
"09988988887898878878788888878875",
"99899898788897887887778877787874",
"90999888877888878788877787778885",
"09888988888889887888877877787884",
"99989887898888888888777887777874",
"09898888888988887777778787778875",
"99988888888888888777788887778754",
"99888898887788777887878778788574",
"98988888889888788878788888888754",
"98889898998889887778889888788774",
"99988989888998888988788877887875",
"09898888877888998878887778788884",
"99899888788788888788875757888884",
"08988887757888878887577577778774",
"98887775575787887775757775757754",
"54444444545444544544444444444444"
};
