/* XPM */
static char *result[] = {
/* columns rows colors chars-per-pixel */
"32 32 20 1 ",
"  c #3C3F33",
". c #484C3D",
"X c #545947",
"o c #6D725B",
"O c #71775F",
"+ c #797F66",
"@ c #805A46",
"# c #A6775E",
"$ c #798066",
"% c #81876D",
"& c #858C70",
"* c #8C9378",
"= c #CB9073",
"- c #9DA584",
"; c #A9B28E",
": c #E6A383",
"> c #E9AC90",
", c #FFB792",
"< c #FFC1A1",
"1 c #FFD4B0",
/* pixels */
"11,1,,1,,,,1,,1,11,1,1,1,,,,,,,#",
",,:,,1,,,:::      ,,1,1,:::::::@",
"1:<<<>,:::: o&&&&o  ,:,::=:=:=#@",
",,><><:,:, o&----&oX  ::=:===:=@",
",:<><>::: X&-;;;;;-&oX ::=:=:=#@",
",,><>>,: X&---&&&----&X ====:#=#",
"1,::,::, XO&&&****-;;-&X =::#=#@",
"1,,:,::: .oO++****&&---&X =:=#=@",
",1:::::: .XXoO%***&&O&;-&X ==:=#",
"1,:,::,:: ..Xo$%**&+. &--+X :==@",
"1,:::,::,:   XoO+&&O   &-&o =:#@",
"1,,:::::    . .Xo++++   &+oX :=@",
",,,,::: .. .XX  .Xo+&+ .+++o =#@",
",1,::, .ooXXooX. .XXo+++&&&+X =@",
"1,,:: .X&&oXOOoX.  .Xo&&&&-&X #@",
",1:, .o&--+oOOOoX..  Xo+&&-+. =@",
"1,, .X&--&+OOOOooXXX  Xo+&&O. =#",
",, .o&--&+OOOooXooOoX. Xo+&+. =@",
",1 .O&-&+oOOooXXoOOoX. .o+&+. :#",
"1, .o++++OOOoX..XoooX.  X+&+. :@",
",, .oOooooOoX.  .XOoX.  .o&O. =@",
"1,  XoOo..oOX.  .XOo. := .oo. =#",
",,  .Xoo  XoX.  .XOo. ::: XX. #@",
",,:: .XX   .XX  .XOo.   = .. #=@",
",:, ..XX    ....XXoX.    :  :=#@",
",: .XoXX  .. ..Xoo......  =::==@",
",, .oOX.  ..  .XOo.  ...  ::=:=#",
"1, .oO. ....   .oo.   ..  =::::@",
",, .oo. ....   .Xo.   ..  :::::@",
"1:, .. =    ::  .. =#=    ==:==@",
",:::  =#    :=    =#=#    =#==#@",
"#@@@@@@@#@#@@@#@@#@@@@@@@@@@@@@@"
};
