/* XPM */
static char *result[] = {
/* columns rows colors chars-per-pixel */
"32 32 15 1 ",
"  c #3C3F33",
". c #484C3D",
"X c #545947",
"o c #6D725B",
"O c #71775F",
"+ c #797F66",
"@ c #805A46",
"# c #A6775E",
"$ c #858C70",
"% c #CB9073",
"& c #9DA584",
"* c #A9B28E",
"= c #E6A383",
"- c #FFB792",
"; c #FFD4B0",
/* pixels */
";;-;--;----;        -;-;-------#",
"--=--;---=  XXXXXXXX  ;-=======@",
";=---=-== ..$&&&&&&$.. ==%=%=%#@",
"--=-=-=- .o$&******&$o. %=%%%=%@",
"-=-=-== .o$&*$&**&$*&$o. %=%=%#@",
"--=-==- .$&*$&&&&&&$*&$. %%%=#%#",
";-==-= .+$&&&&****&&&&$+. ==#%#@",
";--=-= .$&++&&****&&++&$. %=%#%@",
"-;==== .$$. +&&**&&+ .$$. #%%=%#",
";-=-== .O+   +$&&$+   +O. %#=%%@",
";-===- .o++   +$$+   ++o. #%%=#@",
";--=== .Xo$+ .O$$O. +$oX. #%==%@",
"----=== .o$+O+$$$$+O+$o. #%%=%#@",
"-;-==-=- Xo+$$$$$$$$+oX =%%=%#%@",
";--= =-= .o+$$$$$$$$+o. === %%#@",
"-;=-  = . Xo+$$$$$$+oX . =  %%%@",
";--=    X .oo+$$$$+oo. X    ==%#",
"--=-  .Xo. Xo+$$$$+oX .oX.  %=%@",
"-;-- .o+OX .oO$$$$Oo. XO+o. ===#",
";-== .O+Oo. Xo++++oX .oO+O. %==@",
"---=- .XooX. .oooo. .XooX. %%=%@",
";-=-== .oOoX. XXXX .XoOo. %%==%#",
"---=  .XoOOoX.    .XoOOoX.  =%#@",
"--==  XooO+OoX....XoO+OooX  =#%@",
"-=-= .ooXo+$OooooooO$+oXoo. =%#@",
"-==  .ooXX+$+OOOOOO+$+XXoo.  %%@",
"-- .XooX..o++OoXXoO++o. XooX. %#",
";- .oOX.  XoOoX..XoOOo. .XOo. =@",
"-- .oo.   XXXX.  .XXXX   .oo. =@",
";= .XX.   .XX.    .X..   .XX. %@",
"-=  .. #      ==%%      % ..  #@",
"#@    @@      #@@#      @@    @@"
};
