/* XPM */
static char *result[] = {
/* columns rows colors chars-per-pixel */
"32 32 13 1 ",
"  c #3C3F33",
". c #484C3D",
"X c #545947",
"o c #6D725B",
"O c #71775F",
"+ c #797F66",
"@ c #805A46",
"# c #A6775E",
"$ c #858C70",
"% c #CB9073",
"& c #E6A383",
"* c #FFB792",
"= c #FFD4B0",
/* pixels */
"==*=**=****=        *=*=*******#",
"**&**=***&  ........  =*&&&&&&&@",
"=&***&*&& ..XooooooX.. &&%&%&%#@",
"**&*&*&* .XooOOOOOOooX. %&%%%&%@",
"*&*&*&& .XooOXXXXXXOooX. %&%&%#@",
"**&*&&* .oooXXXXXXXXooo. %%%&#%#",
"=*&&*& .XoOXXXXXXXXXXOoX. &&#%#@",
"=**&*& .oOXXXXXXXXXXXXOo. %&%#%@",
"*=&&&& .oOXXXX....XXXXOo. #%%&%#",
"=*&*&& .ooXXX......XXXoo. %#&%%@",
"=*&&&* .XXXX........XXXX. #%%&#@",
"=**&&&& .XXX........XXX. %#%&&%@",
"****&&&& ...        ... %#%%&%#@",
"*=*&&*&*   ..........   &%%&%#%@",
"=**& &*&   .oOO++OOo.   &&& %%#@",
"*=&*  & .. XO$$$$$$OX .. &  %%%@",
"=**&    XoXo+$$$$$$+oXoX    &&%#",
"**&*  .XoOO+$$$$$$$$+OOoX.  %&%@",
"*=** .o+OO$$+O++++O+$$OO+o. &&&#",
"=*&& .O+OO$$OOO++OOO$$OO+O. %&&@",
"***&* .XoOO+++OOOO+++OOoX. %%&%@",
"=*&*&& .oOOO+++OO+++OOOo. %%&&%#",
"***&  .XoOooOO$$$$OoooOoX.  &%#@",
"**&&  XoooooO+$$$$+OoooooX  &#%@",
"*&*& .ooXXoO$$++++$$OoXXoo. &%#@",
"*&&  .ooXXoO$$OooO$$OoXXoo.  %%@",
"** .XooX..oO+OoXXoO++o..XooX. %#",
"=* .oOX. .XoooX..XoOOo. .XOo. &@",
"** .oo.   XXXX.  .XXXX   .oo. &@",
"=& .XX.   .X..    .XX.   .XX. %@",
"*&  .. #      &&%%      % ..  #@",
"#@    @@      #@@#      @@    @@"
};
