/* XPM */
static char *_4d0eb4fcd754129bf1a62912db63dbcfjKo3JLlDdjesivy[] = {
/* columns rows colors chars-per-pixel */
"32 32 16 1 ",
"  c #130701",
". c #271D01",
"X c #332601",
"o c #4D3901",
"O c #0C6501",
"+ c #187301",
"@ c #207901",
"# c #684C01",
"$ c #815F01",
"% c #9B7201",
"& c #308401",
"* c #409001",
"= c #509C01",
"- c #60A801",
"; c #70B301",
": c #B58501",
/* pixels */
".  ... . ........  . .. +. . ...",
"  o##:;%$o::%o.$%%:%$::=-:%%%:%#",
" o%:%%=**#o%$#.%$#$##==*$$##o#Xo",
".$:##$$%*$$#o#X.%#$#$*###o#o##oX",
" :%$#%$*&#oo#oX.$o##*=#o$#ooo##o",
".:$#o#$&#X##oX .$#o$=#o##$o#*&&@",
" $#o#$#&#oooX . .%o##*#$#oo*&oXo",
".%o.#o#o&@oXo . .$o#o*o#o@+@ Xo.",
".  . ....+ .   .   .O+O++ .. ...",
":%#%$$%%$#*X.Xo%%#$#=XXO$%%%#$##",
"#$##$#$ooo#& o#$#=**$#X.%$#$$#$$",
"oo$$#o##$#o*+$o#*=#o##o $#$##$##",
"o#$###o#oo#oO*o#=#o#oo#.%%#o#o#$",
"oo#oo#oo#oo#.&*o&##oo#o $#oXo##o",
"X###ooo#ooXo #o**oo#XoX.$o#oX#oo",
"oXooXXoooXXX oX&XXoXoXo.#XXoXoXX",
"....   . ..  .OO.. . ..... . ...",
".X#$%X o$%$%#%@  X%%$#$$#.#%$%#$",
" $%#$o.X%$#$#=*OX%$#$#%#oX%$$$o#",
".:##$#o  %$*=*oO-&o##o$oX$o##o#o",
" :o$#o$oXO*ooXo %#==&*&X$#oo##oo",
".$##o#o$#O$XooX %$o#o#@+$oX#ooXX",
".%ooo#o#oOX#oXo.$##ooX.=oXoooXoo",
".o##ooo#o@ #XoX.$oooX  $oooXoXXX",
". .. . ..+  . .... . .  ..   ...",
":#$#%#o  @%o o$#$%%#%%$#X.#$%$#%",
"#o##$o# X-$# %####o##$#oo.$#$#$$",
"$#ooX#o %*$$X%###oooo#oXo.%$#$#o",
"#$##oXX $&#$X %oo#o#oo.o..%#o#o#",
"$#o#ooX -*o#o $Xoo#oo#o.X.%o$o#o",
"o##o#Xo -o#oX #..oo.Xo.X..$o#Xo.",
"oXXX.oXO$#oXX #.oX.XoXXo.Xo#XXX."
};
